<?xml version="1.0" standalone="no"?>
<!DOCTYPE svg PUBLIC "-//W3C//DTD SVG 20010904//EN"
 "http://www.w3.org/TR/2001/REC-SVG-20010904/DTD/svg10.dtd">
<svg version="1.0" xmlns="http://www.w3.org/2000/svg"
 width="400.000000pt" height="400.000000pt" viewBox="0 0 400.000000 400.000000"
 preserveAspectRatio="xMidYMid meet">
<metadata>
Created by potrace 1.14, written by Peter Selinger 2001-2017
</metadata>
<g transform="translate(0.000000,400.000000) scale(0.100000,-0.100000)"
fill="#000000" stroke="none">
<path d="M490 3785 c0 -22 -4 -25 -40 -25 l-40 0 0 -40 c0 -36 -2 -40 -25 -40
-18 0 -25 -5 -25 -20 0 -15 -7 -20 -25 -20 l-25 0 0 -125 0 -125 25 0 c18 0
25 -5 25 -20 0 -15 7 -20 25 -20 l25 0 0 -125 0 -125 40 0 c36 0 40 -2 40 -25
0 -20 5 -25 25 -25 18 0 25 -5 25 -20 0 -17 7 -20 40 -20 l40 0 0 -65 c0 -63
1 -65 25 -65 24 0 25 -3 25 -60 0 -57 1 -60 25 -60 18 0 25 -5 25 -20 0 -16 7
-20 35 -20 l35 0 0 -150 0 -150 -125 0 -125 0 0 -35 0 -35 -155 0 -155 0 0
-135 0 -135 -25 0 -25 0 0 -435 0 -435 25 0 25 0 0 -180 0 -180 65 0 c63 0 65
-1 65 -25 0 -20 5 -25 25 -25 20 0 25 -5 25 -25 l0 -25 255 0 255 0 0 -180 0
-180 -125 0 -125 0 0 -25 c0 -20 -5 -25 -25 -25 l-25 0 0 -120 0 -120 115 0
115 0 0 35 c0 33 2 35 35 35 33 0 35 -2 35 -35 l0 -35 115 0 115 0 0 35 c0 32
2 35 30 35 28 0 30 -3 30 -35 l0 -35 125 0 125 0 0 120 0 120 -25 0 c-20 0
-25 5 -25 25 l0 25 -130 0 -130 0 0 180 0 180 220 0 220 0 0 -325 0 -325 1100
0 1100 0 0 580 0 580 55 0 55 0 0 145 0 145 -115 0 -115 0 0 25 c0 20 5 25 25
25 24 0 25 3 25 60 0 57 -1 60 -25 60 -24 0 -25 -3 -25 -60 0 -57 -1 -60 -25
-60 -20 0 -25 -5 -25 -25 l0 -25 -105 0 -105 0 0 120 0 120 105 0 105 0 0 -35
c0 -31 3 -35 25 -35 24 0 25 3 25 60 l0 60 -155 0 -155 0 0 -145 0 -145 -155
0 -155 0 0 25 c0 20 5 25 25 25 24 0 25 3 25 60 l0 60 40 0 40 0 0 60 c0 57 1
60 25 60 24 0 25 3 25 60 l0 60 40 0 40 0 0 60 c0 57 1 60 25 60 l25 0 0 110
0 110 -130 0 -130 0 0 -25 c0 -20 -5 -25 -25 -25 -24 0 -25 -3 -25 -60 0 -57
-1 -60 -25 -60 -24 0 -25 -3 -25 -60 l0 -60 -40 0 -40 0 0 -60 c0 -57 -1 -60
-25 -60 -23 0 -25 -3 -25 -50 0 -47 -2 -50 -25 -50 -24 0 -25 -3 -25 -60 l0
-60 -255 0 -255 0 0 60 c0 57 -1 60 -25 60 -23 0 -25 3 -25 50 0 47 -2 50 -25
50 -22 0 -25 4 -25 35 l0 35 -285 0 -285 0 0 25 0 25 -180 0 -180 0 0 120 0
120 -35 0 c-31 0 -35 3 -35 25 0 24 -3 25 -55 25 l-55 0 0 125 0 125 90 0 90
0 0 45 c0 41 2 45 25 45 l25 0 0 120 0 120 40 0 c36 0 40 3 40 25 0 20 5 25
25 25 l25 0 0 295 0 295 -25 0 c-22 0 -25 4 -25 35 0 34 -1 35 -40 35 -36 0
-40 3 -40 25 0 20 -5 25 -25 25 -18 0 -25 5 -25 20 0 18 -7 20 -65 20 l-65 0
0 40 0 40 -90 0 c-89 0 -90 0 -90 25 l0 25 -240 0 -240 0 0 -25z m430 -65 l0
-40 115 0 c108 0 115 -1 115 -20 0 -18 7 -20 65 -20 63 0 65 -1 65 -25 0 -20
5 -25 25 -25 22 0 25 -4 25 -35 0 -34 1 -35 40 -35 l40 0 0 -295 0 -295 -40 0
c-36 0 -40 -2 -40 -25 0 -20 -5 -25 -25 -25 l-25 0 0 -120 0 -120 -35 0 c-31
0 -35 -3 -35 -25 0 -25 -1 -25 -90 -25 l-90 0 0 -145 0 -145 -120 0 -120 0 0
25 c0 21 5 25 30 25 l30 0 0 100 0 100 35 0 c28 0 35 4 35 20 0 16 -7 20 -35
20 l-35 0 0 65 0 65 -30 0 c-23 0 -30 4 -30 20 0 16 -7 20 -35 20 l-35 0 0 60
c0 57 -1 60 -25 60 -24 0 -25 2 -25 65 0 63 -1 65 -25 65 -18 0 -25 5 -25 20
0 17 -7 20 -40 20 -36 0 -40 3 -40 25 0 20 -5 25 -25 25 l-25 0 0 125 0 125
-40 0 c-33 0 -40 3 -40 20 0 15 -7 20 -25 20 l-25 0 0 125 0 125 25 0 c18 0
25 5 25 20 0 17 7 20 40 20 l40 0 0 40 0 40 215 0 215 0 0 -40z m2390 -1530
l0 -60 -40 0 -40 0 0 -60 c0 -57 -1 -60 -25 -60 -24 0 -25 -3 -25 -60 l0 -60
-40 0 -40 0 0 -50 c0 -47 -2 -50 -25 -50 -24 0 -25 -3 -25 -60 0 -57 -1 -60
-25 -60 -24 0 -25 -3 -25 -60 l0 -60 -40 0 c-36 0 -40 -2 -40 -25 l0 -25 -460
0 -460 0 0 85 0 85 -115 0 -115 0 0 -35 0 -35 90 0 c89 0 90 0 90 -25 l0 -25
-245 0 -245 0 0 -120 0 -120 -125 0 -125 0 0 120 0 120 35 0 35 0 0 85 0 85
65 0 c63 0 65 -1 65 -25 l0 -25 180 0 180 0 0 25 0 25 -155 0 -155 0 0 35 0
35 -245 0 -245 0 0 25 c0 24 -3 25 -60 25 l-60 0 0 60 0 60 35 0 c33 0 35 -2
35 -35 l0 -35 90 0 c89 0 90 0 90 -25 l0 -25 180 0 180 0 0 -25 0 -25 310 0
310 0 0 -35 0 -35 90 0 90 0 0 -60 0 -60 305 0 305 0 0 60 c0 57 1 60 25 60
24 0 25 3 25 60 l0 60 40 0 40 0 0 60 c0 57 1 60 25 60 24 0 25 3 25 60 0 57
1 60 25 60 23 0 25 3 25 50 l0 50 40 0 c39 0 40 1 40 35 l0 35 65 0 65 0 0
-60z m-1720 -265 l0 -35 270 0 270 0 0 -25 c0 -22 4 -25 40 -25 36 0 40 -2 40
-25 0 -22 -4 -25 -40 -25 -36 0 -40 3 -40 25 l0 25 -310 0 -310 0 0 25 0 25
-115 0 -115 0 0 35 0 35 155 0 155 0 0 -35z m-1180 -920 l0 -35 65 0 c63 0 65
-1 65 -25 0 -22 4 -25 40 -25 l40 0 0 -60 0 -60 -105 0 -105 0 0 25 c0 20 -5
25 -25 25 -22 0 -25 4 -25 35 0 31 -3 35 -25 35 -24 0 -25 3 -25 60 l0 60 50
0 50 0 0 -35z m690 -435 l0 -230 115 0 115 0 0 -25 c0 -20 -5 -25 -25 -25 -22
0 -25 -4 -25 -35 l0 -35 -90 0 -90 0 0 35 0 35 -65 0 -65 0 0 -35 0 -35 -90 0
-90 0 0 35 c0 33 -2 35 -35 35 -31 0 -35 3 -35 25 l0 25 125 0 125 0 0 230 0
230 65 0 65 0 0 -230z"/>
<path d="M1030 3325 l0 -145 35 0 c34 0 35 -1 35 -40 l0 -40 90 0 90 0 0 145
0 145 -35 0 c-34 0 -35 1 -35 40 l0 40 -90 0 -90 0 0 -145z"/>
<path d="M3620 1675 c0 -14 5 -25 10 -25 6 0 10 11 10 25 0 14 -4 25 -10 25
-5 0 -10 -11 -10 -25z"/>
</g>
</svg>
